<svg viewBox="0 0 600 500" xmlns="http://www.w3.org/2000/svg" preserveAspectRatio="xMidYMid slice">
  <defs>
    <linearGradient id="bg" x1="0%" y1="0%" x2="100%" y2="100%">
      <stop offset="0%" stop-color="#0f1c42"/>
      <stop offset="100%" stop-color="#1a2b5e"/>
    </linearGradient>
  </defs>
  <rect width="600" height="500" fill="url(#bg)"/>
  <rect x="40" y="40" width="36" height="36" fill="#e31e26" opacity="0.18"/>
  <rect x="86" y="40" width="36" height="36" fill="#e31e26" opacity="0.18"/>
  <rect x="40" y="86" width="36" height="36" fill="#e31e26" opacity="0.18"/>
  <rect x="86" y="86" width="36" height="36" fill="#e31e26" opacity="0.18"/>
  <rect x="494" y="424" width="32" height="32" fill="#ffffff" opacity="0.12"/>
  <rect x="534" y="424" width="32" height="32" fill="#ffffff" opacity="0.12"/>
  <rect x="494" y="464" width="32" height="32" fill="#ffffff" opacity="0.06"/>
  <rect x="534" y="464" width="32" height="32" fill="#ffffff" opacity="0.06"/>
  <rect x="220" y="150" width="160" height="160" fill="#e31e26" rx="14"/>
  <g transform="translate(252,182)" fill="none" stroke="#ffffff" stroke-width="6" stroke-linecap="round" stroke-linejoin="round">
    <path d="M8 80 L80 80 M8 80 L80 30 L80 80 M30 70 L30 80 M50 60 L50 80 M70 50 L70 80" stroke="#ffffff" stroke-width="6" fill="none" stroke-linecap="round" stroke-linejoin="round"/>
  </g>
  <text x="300" y="370" text-anchor="middle" fill="#ffffff" font-family="Georgia, 'Times New Roman', serif" font-size="34" font-weight="700">Every Upgrade, One Crew</text>
  <text x="300" y="402" text-anchor="middle" fill="rgba(255,255,255,0.78)" font-family="-apple-system, 'Helvetica Neue', sans-serif" font-size="17">Ramps, stair lifts, door widening, smart lighting</text>
</svg>